<?xml version="1.0" encoding="UTF-8" standalone="no"?>
<!DOCTYPE svg PUBLIC "-//W3C//DTD SVG 1.1//EN"
 "http://www.w3.org/Graphics/SVG/1.1/DTD/svg11.dtd">
<!-- Generated by graphviz version 2.26.3 (20100126.1600)
 -->
<!-- Title: Tree Pages: 1 -->
<svg width="2905pt" height="964pt"
 viewBox="0.00 0.00 2905.00 964.00" xmlns="http://www.w3.org/2000/svg" xmlns:xlink="http://www.w3.org/1999/xlink">
<g id="graph1" class="graph" transform="scale(1 1) rotate(0) translate(4 960)">
<title>Tree</title>
<polygon fill="white" stroke="white" points="-4,5 -4,-960 2902,-960 2902,5 -4,5"/>
<!-- 0 -->
<g id="node1" class="node"><title>0</title>
<polygon fill="none" stroke="black" points="1222,-956 1020,-956 1020,-880 1222,-880 1222,-956"/>
<text text-anchor="middle" x="1121" y="-939.4" font-family="Times Roman,serif" font-size="14.00">X[0] &lt;= 0.7544</text>
<text text-anchor="middle" x="1121" y="-922.4" font-family="Times Roman,serif" font-size="14.00">error = 0.666666666667</text>
<text text-anchor="middle" x="1121" y="-905.4" font-family="Times Roman,serif" font-size="14.00">samples = 300</text>
<text text-anchor="middle" x="1121" y="-888.4" font-family="Times Roman,serif" font-size="14.00">value = [ 100. &#160;100. &#160;100.]</text>
</g>
<!-- 1 -->
<g id="node2" class="node"><title>1</title>
<polygon fill="none" stroke="black" points="861,-844 667,-844 667,-768 861,-768 861,-844"/>
<text text-anchor="middle" x="764" y="-827.4" font-family="Times Roman,serif" font-size="14.00">X[1] &lt;= &#45;0.1847</text>
<text text-anchor="middle" x="764" y="-810.4" font-family="Times Roman,serif" font-size="14.00">error = 0.191326530612</text>
<text text-anchor="middle" x="764" y="-793.4" font-family="Times Roman,serif" font-size="14.00">samples = 112</text>
<text text-anchor="middle" x="764" y="-776.4" font-family="Times Roman,serif" font-size="14.00">value = [ &#160;12. &#160;&#160;&#160;0. &#160;100.]</text>
</g>
<!-- 0&#45;&gt;1 -->
<g id="edge2" class="edge"><title>0&#45;&gt;1</title>
<path fill="none" stroke="black" d="M1019.65,-886.205C973.175,-871.623 918.055,-854.331 870.917,-839.543"/>
<polygon fill="black" stroke="black" points="871.883,-836.178 861.294,-836.524 869.788,-842.857 871.883,-836.178"/>
</g>
<!-- 20 -->
<g id="node40" class="node"><title>20</title>
<polygon fill="none" stroke="black" points="1575,-844 1381,-844 1381,-768 1575,-768 1575,-844"/>
<text text-anchor="middle" x="1478" y="-827.4" font-family="Times Roman,serif" font-size="14.00">X[2] &lt;= 0.2878</text>
<text text-anchor="middle" x="1478" y="-810.4" font-family="Times Roman,serif" font-size="14.00">error = 0.497962879131</text>
<text text-anchor="middle" x="1478" y="-793.4" font-family="Times Roman,serif" font-size="14.00">samples = 188</text>
<text text-anchor="middle" x="1478" y="-776.4" font-family="Times Roman,serif" font-size="14.00">value = [ &#160;88. &#160;100. &#160;&#160;&#160;0.]</text>
</g>
<!-- 0&#45;&gt;20 -->
<g id="edge40" class="edge"><title>0&#45;&gt;20</title>
<path fill="none" stroke="black" d="M1222.35,-886.205C1268.83,-871.623 1323.95,-854.331 1371.08,-839.543"/>
<polygon fill="black" stroke="black" points="1372.21,-842.857 1380.71,-836.524 1370.12,-836.178 1372.21,-842.857"/>
</g>
<!-- 2 -->
<g id="node4" class="node"><title>2</title>
<polygon fill="none" stroke="black" points="645,-723.5 497,-723.5 497,-664.5 645,-664.5 645,-723.5"/>
<text text-anchor="middle" x="571" y="-706.9" font-family="Times Roman,serif" font-size="14.00">error = 0.0000</text>
<text text-anchor="middle" x="571" y="-689.9" font-family="Times Roman,serif" font-size="14.00">samples = 7</text>
<text text-anchor="middle" x="571" y="-672.9" font-family="Times Roman,serif" font-size="14.00">value = [ 7. &#160;0. &#160;0.]</text>
</g>
<!-- 1&#45;&gt;2 -->
<g id="edge4" class="edge"><title>1&#45;&gt;2</title>
<path fill="none" stroke="black" d="M698.39,-767.926C676.491,-755.218 652.22,-741.133 630.788,-728.696"/>
<polygon fill="black" stroke="black" points="632.511,-725.649 622.105,-723.657 628.997,-731.703 632.511,-725.649"/>
</g>
<!-- 3 -->
<g id="node6" class="node"><title>3</title>
<polygon fill="none" stroke="black" points="865,-732 663,-732 663,-656 865,-656 865,-732"/>
<text text-anchor="middle" x="764" y="-715.4" font-family="Times Roman,serif" font-size="14.00">X[1] &lt;= 0.6130</text>
<text text-anchor="middle" x="764" y="-698.4" font-family="Times Roman,serif" font-size="14.00">error = 0.0907029478458</text>
<text text-anchor="middle" x="764" y="-681.4" font-family="Times Roman,serif" font-size="14.00">samples = 105</text>
<text text-anchor="middle" x="764" y="-664.4" font-family="Times Roman,serif" font-size="14.00">value = [ &#160;&#160;5. &#160;&#160;&#160;0. &#160;100.]</text>
</g>
<!-- 1&#45;&gt;3 -->
<g id="edge6" class="edge"><title>1&#45;&gt;3</title>
<path fill="none" stroke="black" d="M764,-767.769C764,-759.57 764,-750.803 764,-742.28"/>
<polygon fill="black" stroke="black" points="767.5,-742.058 764,-732.058 760.5,-742.059 767.5,-742.058"/>
</g>
<!-- 4 -->
<g id="node8" class="node"><title>4</title>
<polygon fill="none" stroke="black" points="591,-620 389,-620 389,-544 591,-544 591,-620"/>
<text text-anchor="middle" x="490" y="-603.4" font-family="Times Roman,serif" font-size="14.00">X[0] &lt;= 0.4149</text>
<text text-anchor="middle" x="490" y="-586.4" font-family="Times Roman,serif" font-size="14.00">error = 0.0746535960034</text>
<text text-anchor="middle" x="490" y="-569.4" font-family="Times Roman,serif" font-size="14.00">samples = 103</text>
<text text-anchor="middle" x="490" y="-552.4" font-family="Times Roman,serif" font-size="14.00">value = [ &#160;4. &#160;&#160;0. &#160;99.]</text>
</g>
<!-- 3&#45;&gt;4 -->
<g id="edge8" class="edge"><title>3&#45;&gt;4</title>
<path fill="none" stroke="black" d="M670.854,-655.926C645.706,-645.646 618.355,-634.466 592.715,-623.986"/>
<polygon fill="black" stroke="black" points="593.935,-620.703 583.354,-620.159 591.286,-627.183 593.935,-620.703"/>
</g>
<!-- 17 -->
<g id="node34" class="node"><title>17</title>
<polygon fill="none" stroke="black" points="838,-620 690,-620 690,-544 838,-544 838,-620"/>
<text text-anchor="middle" x="764" y="-603.4" font-family="Times Roman,serif" font-size="14.00">X[0] &lt;= 0.0324</text>
<text text-anchor="middle" x="764" y="-586.4" font-family="Times Roman,serif" font-size="14.00">error = 0.5</text>
<text text-anchor="middle" x="764" y="-569.4" font-family="Times Roman,serif" font-size="14.00">samples = 2</text>
<text text-anchor="middle" x="764" y="-552.4" font-family="Times Roman,serif" font-size="14.00">value = [ 1. &#160;0. &#160;1.]</text>
</g>
<!-- 3&#45;&gt;17 -->
<g id="edge34" class="edge"><title>3&#45;&gt;17</title>
<path fill="none" stroke="black" d="M764,-655.769C764,-647.57 764,-638.803 764,-630.28"/>
<polygon fill="black" stroke="black" points="767.5,-630.058 764,-620.058 760.5,-630.059 767.5,-630.058"/>
</g>
<!-- 5 -->
<g id="node10" class="node"><title>5</title>
<polygon fill="none" stroke="black" points="375,-508 173,-508 173,-432 375,-432 375,-508"/>
<text text-anchor="middle" x="274" y="-491.4" font-family="Times Roman,serif" font-size="14.00">X[0] &lt;= 0.2584</text>
<text text-anchor="middle" x="274" y="-474.4" font-family="Times Roman,serif" font-size="14.00">error = 0.0416478044364</text>
<text text-anchor="middle" x="274" y="-457.4" font-family="Times Roman,serif" font-size="14.00">samples = 94</text>
<text text-anchor="middle" x="274" y="-440.4" font-family="Times Roman,serif" font-size="14.00">value = [ &#160;2. &#160;&#160;0. &#160;92.]</text>
</g>
<!-- 4&#45;&gt;5 -->
<g id="edge10" class="edge"><title>4&#45;&gt;5</title>
<path fill="none" stroke="black" d="M416.571,-543.926C397.268,-533.917 376.318,-523.054 356.571,-512.815"/>
<polygon fill="black" stroke="black" points="358.082,-509.655 347.593,-508.159 354.859,-515.87 358.082,-509.655"/>
</g>
<!-- 14 -->
<g id="node28" class="node"><title>14</title>
<polygon fill="none" stroke="black" points="587,-508 393,-508 393,-432 587,-432 587,-508"/>
<text text-anchor="middle" x="490" y="-491.4" font-family="Times Roman,serif" font-size="14.00">X[2] &lt;= &#45;0.0317</text>
<text text-anchor="middle" x="490" y="-474.4" font-family="Times Roman,serif" font-size="14.00">error = 0.345679012346</text>
<text text-anchor="middle" x="490" y="-457.4" font-family="Times Roman,serif" font-size="14.00">samples = 9</text>
<text text-anchor="middle" x="490" y="-440.4" font-family="Times Roman,serif" font-size="14.00">value = [ 2. &#160;0. &#160;7.]</text>
</g>
<!-- 4&#45;&gt;14 -->
<g id="edge28" class="edge"><title>4&#45;&gt;14</title>
<path fill="none" stroke="black" d="M490,-543.769C490,-535.57 490,-526.803 490,-518.28"/>
<polygon fill="black" stroke="black" points="493.5,-518.058 490,-508.058 486.5,-518.059 493.5,-518.058"/>
</g>
<!-- 6 -->
<g id="node12" class="node"><title>6</title>
<polygon fill="none" stroke="black" points="166,-387.5 8.52651e-14,-387.5 0,-328.5 166,-328.5 166,-387.5"/>
<text text-anchor="middle" x="83" y="-370.9" font-family="Times Roman,serif" font-size="14.00">error = 0.0000</text>
<text text-anchor="middle" x="83" y="-353.9" font-family="Times Roman,serif" font-size="14.00">samples = 60</text>
<text text-anchor="middle" x="83" y="-336.9" font-family="Times Roman,serif" font-size="14.00">value = [ &#160;0. &#160;&#160;0. &#160;60.]</text>
</g>
<!-- 5&#45;&gt;6 -->
<g id="edge12" class="edge"><title>5&#45;&gt;6</title>
<path fill="none" stroke="black" d="M209.07,-431.926C187.494,-419.274 163.592,-405.258 142.452,-392.862"/>
<polygon fill="black" stroke="black" points="143.972,-389.696 133.575,-387.657 140.431,-395.734 143.972,-389.696"/>
</g>
<!-- 7 -->
<g id="node14" class="node"><title>7</title>
<polygon fill="none" stroke="black" points="378,-396 184,-396 184,-320 378,-320 378,-396"/>
<text text-anchor="middle" x="281" y="-379.4" font-family="Times Roman,serif" font-size="14.00">X[0] &lt;= 0.2589</text>
<text text-anchor="middle" x="281" y="-362.4" font-family="Times Roman,serif" font-size="14.00">error = 0.110726643599</text>
<text text-anchor="middle" x="281" y="-345.4" font-family="Times Roman,serif" font-size="14.00">samples = 34</text>
<text text-anchor="middle" x="281" y="-328.4" font-family="Times Roman,serif" font-size="14.00">value = [ &#160;2. &#160;&#160;0. &#160;32.]</text>
</g>
<!-- 5&#45;&gt;7 -->
<g id="edge14" class="edge"><title>5&#45;&gt;7</title>
<path fill="none" stroke="black" d="M276.389,-431.769C276.902,-423.57 277.45,-414.803 277.983,-406.28"/>
<polygon fill="black" stroke="black" points="281.491,-406.257 278.621,-396.058 274.504,-405.821 281.491,-406.257"/>
</g>
<!-- 8 -->
<g id="node16" class="node"><title>8</title>
<polygon fill="none" stroke="black" points="261,-275.5 113,-275.5 113,-216.5 261,-216.5 261,-275.5"/>
<text text-anchor="middle" x="187" y="-258.9" font-family="Times Roman,serif" font-size="14.00">error = 0.0000</text>
<text text-anchor="middle" x="187" y="-241.9" font-family="Times Roman,serif" font-size="14.00">samples = 1</text>
<text text-anchor="middle" x="187" y="-224.9" font-family="Times Roman,serif" font-size="14.00">value = [ 1. &#160;0. &#160;0.]</text>
</g>
<!-- 7&#45;&gt;8 -->
<g id="edge16" class="edge"><title>7&#45;&gt;8</title>
<path fill="none" stroke="black" d="M248.913,-319.769C239.061,-308.03 228.233,-295.128 218.425,-283.442"/>
<polygon fill="black" stroke="black" points="220.932,-280.985 211.822,-275.575 215.57,-285.485 220.932,-280.985"/>
</g>
<!-- 9 -->
<g id="node18" class="node"><title>9</title>
<polygon fill="none" stroke="black" points="473,-284 279,-284 279,-208 473,-208 473,-284"/>
<text text-anchor="middle" x="376" y="-267.4" font-family="Times Roman,serif" font-size="14.00">X[0] &lt;= 0.2717</text>
<text text-anchor="middle" x="376" y="-250.4" font-family="Times Roman,serif" font-size="14.00">error = 0.058769513315</text>
<text text-anchor="middle" x="376" y="-233.4" font-family="Times Roman,serif" font-size="14.00">samples = 33</text>
<text text-anchor="middle" x="376" y="-216.4" font-family="Times Roman,serif" font-size="14.00">value = [ &#160;1. &#160;&#160;0. &#160;32.]</text>
</g>
<!-- 7&#45;&gt;9 -->
<g id="edge18" class="edge"><title>7&#45;&gt;9</title>
<path fill="none" stroke="black" d="M313.428,-319.769C321.071,-310.759 329.294,-301.064 337.187,-291.759"/>
<polygon fill="black" stroke="black" points="339.919,-293.949 343.718,-284.058 334.58,-289.421 339.919,-293.949"/>
</g>
<!-- 10 -->
<g id="node20" class="node"><title>10</title>
<polygon fill="none" stroke="black" points="363,-172 215,-172 215,-96 363,-96 363,-172"/>
<text text-anchor="middle" x="289" y="-155.4" font-family="Times Roman,serif" font-size="14.00">X[0] &lt;= 0.2669</text>
<text text-anchor="middle" x="289" y="-138.4" font-family="Times Roman,serif" font-size="14.00">error = 0.375</text>
<text text-anchor="middle" x="289" y="-121.4" font-family="Times Roman,serif" font-size="14.00">samples = 4</text>
<text text-anchor="middle" x="289" y="-104.4" font-family="Times Roman,serif" font-size="14.00">value = [ 1. &#160;0. &#160;3.]</text>
</g>
<!-- 9&#45;&gt;10 -->
<g id="edge20" class="edge"><title>9&#45;&gt;10</title>
<path fill="none" stroke="black" d="M346.303,-207.769C339.374,-198.849 331.923,-189.257 324.762,-180.038"/>
<polygon fill="black" stroke="black" points="327.462,-177.809 318.563,-172.058 321.934,-182.103 327.462,-177.809"/>
</g>
<!-- 13 -->
<g id="node26" class="node"><title>13</title>
<polygon fill="none" stroke="black" points="547,-163.5 381,-163.5 381,-104.5 547,-104.5 547,-163.5"/>
<text text-anchor="middle" x="464" y="-146.9" font-family="Times Roman,serif" font-size="14.00">error = 0.0000</text>
<text text-anchor="middle" x="464" y="-129.9" font-family="Times Roman,serif" font-size="14.00">samples = 29</text>
<text text-anchor="middle" x="464" y="-112.9" font-family="Times Roman,serif" font-size="14.00">value = [ &#160;0. &#160;&#160;0. &#160;29.]</text>
</g>
<!-- 9&#45;&gt;13 -->
<g id="edge26" class="edge"><title>9&#45;&gt;13</title>
<path fill="none" stroke="black" d="M406.038,-207.769C415.262,-196.03 425.399,-183.128 434.581,-171.442"/>
<polygon fill="black" stroke="black" points="437.336,-173.601 440.762,-163.575 431.832,-169.276 437.336,-173.601"/>
</g>
<!-- 11 -->
<g id="node22" class="node"><title>11</title>
<polygon fill="none" stroke="black" points="280,-59.5 132,-59.5 132,-0.5 280,-0.5 280,-59.5"/>
<text text-anchor="middle" x="206" y="-42.9" font-family="Times Roman,serif" font-size="14.00">error = 0.0000</text>
<text text-anchor="middle" x="206" y="-25.9" font-family="Times Roman,serif" font-size="14.00">samples = 3</text>
<text text-anchor="middle" x="206" y="-8.9" font-family="Times Roman,serif" font-size="14.00">value = [ 0. &#160;0. &#160;3.]</text>
</g>
<!-- 10&#45;&gt;11 -->
<g id="edge22" class="edge"><title>10&#45;&gt;11</title>
<path fill="none" stroke="black" d="M258.565,-95.8648C251.194,-86.6282 243.32,-76.7621 235.97,-67.5526"/>
<polygon fill="black" stroke="black" points="238.645,-65.2937 229.672,-59.6609 233.174,-69.6601 238.645,-65.2937"/>
</g>
<!-- 12 -->
<g id="node24" class="node"><title>12</title>
<polygon fill="none" stroke="black" points="446,-59.5 298,-59.5 298,-0.5 446,-0.5 446,-59.5"/>
<text text-anchor="middle" x="372" y="-42.9" font-family="Times Roman,serif" font-size="14.00">error = 0.0000</text>
<text text-anchor="middle" x="372" y="-25.9" font-family="Times Roman,serif" font-size="14.00">samples = 1</text>
<text text-anchor="middle" x="372" y="-8.9" font-family="Times Roman,serif" font-size="14.00">value = [ 1. &#160;0. &#160;0.]</text>
</g>
<!-- 10&#45;&gt;12 -->
<g id="edge24" class="edge"><title>10&#45;&gt;12</title>
<path fill="none" stroke="black" d="M319.435,-95.8648C326.806,-86.6282 334.68,-76.7621 342.03,-67.5526"/>
<polygon fill="black" stroke="black" points="344.826,-69.6601 348.328,-59.6609 339.355,-65.2937 344.826,-69.6601"/>
</g>
<!-- 15 -->
<g id="node30" class="node"><title>15</title>
<polygon fill="none" stroke="black" points="557,-387.5 409,-387.5 409,-328.5 557,-328.5 557,-387.5"/>
<text text-anchor="middle" x="483" y="-370.9" font-family="Times Roman,serif" font-size="14.00">error = 0.0000</text>
<text text-anchor="middle" x="483" y="-353.9" font-family="Times Roman,serif" font-size="14.00">samples = 2</text>
<text text-anchor="middle" x="483" y="-336.9" font-family="Times Roman,serif" font-size="14.00">value = [ 2. &#160;0. &#160;0.]</text>
</g>
<!-- 14&#45;&gt;15 -->
<g id="edge30" class="edge"><title>14&#45;&gt;15</title>
<path fill="none" stroke="black" d="M487.611,-431.769C486.926,-420.82 486.179,-408.86 485.489,-397.818"/>
<polygon fill="black" stroke="black" points="488.966,-397.338 484.848,-387.575 481.979,-397.774 488.966,-397.338"/>
</g>
<!-- 16 -->
<g id="node32" class="node"><title>16</title>
<polygon fill="none" stroke="black" points="723,-387.5 575,-387.5 575,-328.5 723,-328.5 723,-387.5"/>
<text text-anchor="middle" x="649" y="-370.9" font-family="Times Roman,serif" font-size="14.00">error = 0.0000</text>
<text text-anchor="middle" x="649" y="-353.9" font-family="Times Roman,serif" font-size="14.00">samples = 7</text>
<text text-anchor="middle" x="649" y="-336.9" font-family="Times Roman,serif" font-size="14.00">value = [ 0. &#160;0. &#160;7.]</text>
</g>
<!-- 14&#45;&gt;16 -->
<g id="edge32" class="edge"><title>14&#45;&gt;16</title>
<path fill="none" stroke="black" d="M544.274,-431.769C561.901,-419.353 581.374,-405.636 598.699,-393.432"/>
<polygon fill="black" stroke="black" points="600.854,-396.196 607.013,-387.575 596.822,-390.473 600.854,-396.196"/>
</g>
<!-- 18 -->
<g id="node36" class="node"><title>18</title>
<polygon fill="none" stroke="black" points="753,-499.5 605,-499.5 605,-440.5 753,-440.5 753,-499.5"/>
<text text-anchor="middle" x="679" y="-482.9" font-family="Times Roman,serif" font-size="14.00">error = 0.0000</text>
<text text-anchor="middle" x="679" y="-465.9" font-family="Times Roman,serif" font-size="14.00">samples = 1</text>
<text text-anchor="middle" x="679" y="-448.9" font-family="Times Roman,serif" font-size="14.00">value = [ 1. &#160;0. &#160;0.]</text>
</g>
<!-- 17&#45;&gt;18 -->
<g id="edge36" class="edge"><title>17&#45;&gt;18</title>
<path fill="none" stroke="black" d="M734.986,-543.769C726.162,-532.143 716.473,-519.376 707.672,-507.78"/>
<polygon fill="black" stroke="black" points="710.279,-505.425 701.446,-499.575 704.703,-509.657 710.279,-505.425"/>
</g>
<!-- 19 -->
<g id="node38" class="node"><title>19</title>
<polygon fill="none" stroke="black" points="919,-499.5 771,-499.5 771,-440.5 919,-440.5 919,-499.5"/>
<text text-anchor="middle" x="845" y="-482.9" font-family="Times Roman,serif" font-size="14.00">error = 0.0000</text>
<text text-anchor="middle" x="845" y="-465.9" font-family="Times Roman,serif" font-size="14.00">samples = 1</text>
<text text-anchor="middle" x="845" y="-448.9" font-family="Times Roman,serif" font-size="14.00">value = [ 0. &#160;0. &#160;1.]</text>
</g>
<!-- 17&#45;&gt;19 -->
<g id="edge38" class="edge"><title>17&#45;&gt;19</title>
<path fill="none" stroke="black" d="M791.649,-543.769C800.057,-532.143 809.29,-519.376 817.677,-507.78"/>
<polygon fill="black" stroke="black" points="820.586,-509.73 823.611,-499.575 814.914,-505.627 820.586,-509.73"/>
</g>
<!-- 21 -->
<g id="node42" class="node"><title>21</title>
<polygon fill="none" stroke="black" points="1570,-732 1386,-732 1386,-656 1570,-656 1570,-732"/>
<text text-anchor="middle" x="1478" y="-715.4" font-family="Times Roman,serif" font-size="14.00">X[2] &lt;= 0.2499</text>
<text text-anchor="middle" x="1478" y="-698.4" font-family="Times Roman,serif" font-size="14.00">error = 0.12574169928</text>
<text text-anchor="middle" x="1478" y="-681.4" font-family="Times Roman,serif" font-size="14.00">samples = 89</text>
<text text-anchor="middle" x="1478" y="-664.4" font-family="Times Roman,serif" font-size="14.00">value = [ 83. &#160;&#160;6. &#160;&#160;0.]</text>
</g>
<!-- 20&#45;&gt;21 -->
<g id="edge42" class="edge"><title>20&#45;&gt;21</title>
<path fill="none" stroke="black" d="M1478,-767.769C1478,-759.57 1478,-750.803 1478,-742.28"/>
<polygon fill="black" stroke="black" points="1481.5,-742.058 1478,-732.058 1474.5,-742.059 1481.5,-742.058"/>
</g>
<!-- 42 -->
<g id="node84" class="node"><title>42</title>
<polygon fill="none" stroke="black" points="2431,-732 2229,-732 2229,-656 2431,-656 2431,-732"/>
<text text-anchor="middle" x="2330" y="-715.4" font-family="Times Roman,serif" font-size="14.00">X[0] &lt;= 2.2278</text>
<text text-anchor="middle" x="2330" y="-698.4" font-family="Times Roman,serif" font-size="14.00">error = 0.0959085807571</text>
<text text-anchor="middle" x="2330" y="-681.4" font-family="Times Roman,serif" font-size="14.00">samples = 99</text>
<text text-anchor="middle" x="2330" y="-664.4" font-family="Times Roman,serif" font-size="14.00">value = [ &#160;5. &#160;94. &#160;&#160;0.]</text>
</g>
<!-- 20&#45;&gt;42 -->
<g id="edge84" class="edge"><title>20&#45;&gt;42</title>
<path fill="none" stroke="black" d="M1575.32,-793.207C1734.71,-772.255 2050.44,-730.749 2218.56,-708.649"/>
<polygon fill="black" stroke="black" points="2219.22,-712.093 2228.68,-707.319 2218.31,-705.152 2219.22,-712.093"/>
</g>
<!-- 22 -->
<g id="node44" class="node"><title>22</title>
<polygon fill="none" stroke="black" points="1383,-620 1217,-620 1217,-544 1383,-544 1383,-620"/>
<text text-anchor="middle" x="1300" y="-603.4" font-family="Times Roman,serif" font-size="14.00">X[0] &lt;= 0.8889</text>
<text text-anchor="middle" x="1300" y="-586.4" font-family="Times Roman,serif" font-size="14.00">error = 0.0721875</text>
<text text-anchor="middle" x="1300" y="-569.4" font-family="Times Roman,serif" font-size="14.00">samples = 80</text>
<text text-anchor="middle" x="1300" y="-552.4" font-family="Times Roman,serif" font-size="14.00">value = [ 77. &#160;&#160;3. &#160;&#160;0.]</text>
</g>
<!-- 21&#45;&gt;22 -->
<g id="edge44" class="edge"><title>21&#45;&gt;22</title>
<path fill="none" stroke="black" d="M1417.24,-655.769C1401.77,-646.038 1385.04,-635.508 1369.19,-625.534"/>
<polygon fill="black" stroke="black" points="1370.81,-622.422 1360.49,-620.058 1367.09,-628.347 1370.81,-622.422"/>
</g>
<!-- 35 -->
<g id="node70" class="node"><title>35</title>
<polygon fill="none" stroke="black" points="1754,-620 1560,-620 1560,-544 1754,-544 1754,-620"/>
<text text-anchor="middle" x="1657" y="-603.4" font-family="Times Roman,serif" font-size="14.00">X[0] &lt;= 1.3715</text>
<text text-anchor="middle" x="1657" y="-586.4" font-family="Times Roman,serif" font-size="14.00">error = 0.444444444444</text>
<text text-anchor="middle" x="1657" y="-569.4" font-family="Times Roman,serif" font-size="14.00">samples = 9</text>
<text text-anchor="middle" x="1657" y="-552.4" font-family="Times Roman,serif" font-size="14.00">value = [ 6. &#160;3. &#160;0.]</text>
</g>
<!-- 21&#45;&gt;35 -->
<g id="edge70" class="edge"><title>21&#45;&gt;35</title>
<path fill="none" stroke="black" d="M1538.85,-655.926C1554.41,-646.187 1571.27,-635.641 1587.24,-625.646"/>
<polygon fill="black" stroke="black" points="1589.39,-628.431 1596.01,-620.159 1585.68,-622.497 1589.39,-628.431"/>
</g>
<!-- 23 -->
<g id="node46" class="node"><title>23</title>
<polygon fill="none" stroke="black" points="1085,-508 937,-508 937,-432 1085,-432 1085,-508"/>
<text text-anchor="middle" x="1011" y="-491.4" font-family="Times Roman,serif" font-size="14.00">X[0] &lt;= 0.8635</text>
<text text-anchor="middle" x="1011" y="-474.4" font-family="Times Roman,serif" font-size="14.00">error = 0.5</text>
<text text-anchor="middle" x="1011" y="-457.4" font-family="Times Roman,serif" font-size="14.00">samples = 2</text>
<text text-anchor="middle" x="1011" y="-440.4" font-family="Times Roman,serif" font-size="14.00">value = [ 1. &#160;1. &#160;0.]</text>
</g>
<!-- 22&#45;&gt;23 -->
<g id="edge46" class="edge"><title>22&#45;&gt;23</title>
<path fill="none" stroke="black" d="M1216.8,-549.755C1178.52,-534.921 1133.2,-517.357 1094.84,-502.493"/>
<polygon fill="black" stroke="black" points="1095.84,-499.126 1085.25,-498.775 1093.31,-505.653 1095.84,-499.126"/>
</g>
<!-- 26 -->
<g id="node52" class="node"><title>26</title>
<polygon fill="none" stroke="black" points="1401,-508 1199,-508 1199,-432 1401,-432 1401,-508"/>
<text text-anchor="middle" x="1300" y="-491.4" font-family="Times Roman,serif" font-size="14.00">X[0] &lt;= 0.9775</text>
<text text-anchor="middle" x="1300" y="-474.4" font-family="Times Roman,serif" font-size="14.00">error = 0.0499671268902</text>
<text text-anchor="middle" x="1300" y="-457.4" font-family="Times Roman,serif" font-size="14.00">samples = 78</text>
<text text-anchor="middle" x="1300" y="-440.4" font-family="Times Roman,serif" font-size="14.00">value = [ 76. &#160;&#160;2. &#160;&#160;0.]</text>
</g>
<!-- 22&#45;&gt;26 -->
<g id="edge52" class="edge"><title>22&#45;&gt;26</title>
<path fill="none" stroke="black" d="M1300,-543.769C1300,-535.57 1300,-526.803 1300,-518.28"/>
<polygon fill="black" stroke="black" points="1303.5,-518.058 1300,-508.058 1296.5,-518.059 1303.5,-518.058"/>
</g>
<!-- 24 -->
<g id="node48" class="node"><title>24</title>
<polygon fill="none" stroke="black" points="907,-387.5 759,-387.5 759,-328.5 907,-328.5 907,-387.5"/>
<text text-anchor="middle" x="833" y="-370.9" font-family="Times Roman,serif" font-size="14.00">error = 0.0000</text>
<text text-anchor="middle" x="833" y="-353.9" font-family="Times Roman,serif" font-size="14.00">samples = 1</text>
<text text-anchor="middle" x="833" y="-336.9" font-family="Times Roman,serif" font-size="14.00">value = [ 1. &#160;0. &#160;0.]</text>
</g>
<!-- 23&#45;&gt;24 -->
<g id="edge48" class="edge"><title>23&#45;&gt;24</title>
<path fill="none" stroke="black" d="M950.24,-431.769C930.238,-419.183 908.112,-405.261 888.52,-392.934"/>
<polygon fill="black" stroke="black" points="890.332,-389.939 880.004,-387.575 886.604,-395.864 890.332,-389.939"/>
</g>
<!-- 25 -->
<g id="node50" class="node"><title>25</title>
<polygon fill="none" stroke="black" points="1073,-387.5 925,-387.5 925,-328.5 1073,-328.5 1073,-387.5"/>
<text text-anchor="middle" x="999" y="-370.9" font-family="Times Roman,serif" font-size="14.00">error = 0.0000</text>
<text text-anchor="middle" x="999" y="-353.9" font-family="Times Roman,serif" font-size="14.00">samples = 1</text>
<text text-anchor="middle" x="999" y="-336.9" font-family="Times Roman,serif" font-size="14.00">value = [ 0. &#160;1. &#160;0.]</text>
</g>
<!-- 23&#45;&gt;25 -->
<g id="edge50" class="edge"><title>23&#45;&gt;25</title>
<path fill="none" stroke="black" d="M1006.9,-431.769C1005.73,-420.82 1004.45,-408.86 1003.27,-397.818"/>
<polygon fill="black" stroke="black" points="1006.71,-397.146 1002.17,-387.575 999.754,-397.891 1006.71,-397.146"/>
</g>
<!-- 27 -->
<g id="node54" class="node"><title>27</title>
<polygon fill="none" stroke="black" points="1285,-396 1091,-396 1091,-320 1285,-320 1285,-396"/>
<text text-anchor="middle" x="1188" y="-379.4" font-family="Times Roman,serif" font-size="14.00">X[0] &lt;= 0.9730</text>
<text text-anchor="middle" x="1188" y="-362.4" font-family="Times Roman,serif" font-size="14.00">error = 0.244897959184</text>
<text text-anchor="middle" x="1188" y="-345.4" font-family="Times Roman,serif" font-size="14.00">samples = 7</text>
<text text-anchor="middle" x="1188" y="-328.4" font-family="Times Roman,serif" font-size="14.00">value = [ 6. &#160;1. &#160;0.]</text>
</g>
<!-- 26&#45;&gt;27 -->
<g id="edge54" class="edge"><title>26&#45;&gt;27</title>
<path fill="none" stroke="black" d="M1261.77,-431.769C1252.58,-422.579 1242.68,-412.676 1233.2,-403.201"/>
<polygon fill="black" stroke="black" points="1235.6,-400.655 1226.06,-396.058 1230.65,-405.604 1235.6,-400.655"/>
</g>
<!-- 30 -->
<g id="node60" class="node"><title>30</title>
<polygon fill="none" stroke="black" points="1505,-396 1303,-396 1303,-320 1505,-320 1505,-396"/>
<text text-anchor="middle" x="1404" y="-379.4" font-family="Times Roman,serif" font-size="14.00">X[2] &lt;= 0.0042</text>
<text text-anchor="middle" x="1404" y="-362.4" font-family="Times Roman,serif" font-size="14.00">error = 0.0277722674073</text>
<text text-anchor="middle" x="1404" y="-345.4" font-family="Times Roman,serif" font-size="14.00">samples = 71</text>
<text text-anchor="middle" x="1404" y="-328.4" font-family="Times Roman,serif" font-size="14.00">value = [ 70. &#160;&#160;1. &#160;&#160;0.]</text>
</g>
<!-- 26&#45;&gt;30 -->
<g id="edge60" class="edge"><title>26&#45;&gt;30</title>
<path fill="none" stroke="black" d="M1335.5,-431.769C1343.95,-422.669 1353.05,-412.87 1361.77,-403.48"/>
<polygon fill="black" stroke="black" points="1364.42,-405.768 1368.66,-396.058 1359.29,-401.005 1364.42,-405.768"/>
</g>
<!-- 28 -->
<g id="node56" class="node"><title>28</title>
<polygon fill="none" stroke="black" points="1104,-275.5 956,-275.5 956,-216.5 1104,-216.5 1104,-275.5"/>
<text text-anchor="middle" x="1030" y="-258.9" font-family="Times Roman,serif" font-size="14.00">error = 0.0000</text>
<text text-anchor="middle" x="1030" y="-241.9" font-family="Times Roman,serif" font-size="14.00">samples = 6</text>
<text text-anchor="middle" x="1030" y="-224.9" font-family="Times Roman,serif" font-size="14.00">value = [ 6. &#160;0. &#160;0.]</text>
</g>
<!-- 27&#45;&gt;28 -->
<g id="edge56" class="edge"><title>27&#45;&gt;28</title>
<path fill="none" stroke="black" d="M1134.07,-319.769C1116.55,-307.353 1097.2,-293.636 1079.98,-281.432"/>
<polygon fill="black" stroke="black" points="1081.9,-278.503 1071.72,-275.575 1077.86,-284.214 1081.9,-278.503"/>
</g>
<!-- 29 -->
<g id="node58" class="node"><title>29</title>
<polygon fill="none" stroke="black" points="1270,-275.5 1122,-275.5 1122,-216.5 1270,-216.5 1270,-275.5"/>
<text text-anchor="middle" x="1196" y="-258.9" font-family="Times Roman,serif" font-size="14.00">error = 0.0000</text>
<text text-anchor="middle" x="1196" y="-241.9" font-family="Times Roman,serif" font-size="14.00">samples = 1</text>
<text text-anchor="middle" x="1196" y="-224.9" font-family="Times Roman,serif" font-size="14.00">value = [ 0. &#160;1. &#160;0.]</text>
</g>
<!-- 27&#45;&gt;29 -->
<g id="edge58" class="edge"><title>27&#45;&gt;29</title>
<path fill="none" stroke="black" d="M1190.73,-319.769C1191.51,-308.82 1192.37,-296.86 1193.16,-285.818"/>
<polygon fill="black" stroke="black" points="1196.67,-285.799 1193.89,-275.575 1189.68,-285.301 1196.67,-285.799"/>
</g>
<!-- 31 -->
<g id="node62" class="node"><title>31</title>
<polygon fill="none" stroke="black" points="1488,-284 1304,-284 1304,-208 1488,-208 1488,-284"/>
<text text-anchor="middle" x="1396" y="-267.4" font-family="Times Roman,serif" font-size="14.00">X[2] &lt;= &#45;0.0073</text>
<text text-anchor="middle" x="1396" y="-250.4" font-family="Times Roman,serif" font-size="14.00">error = 0.14201183432</text>
<text text-anchor="middle" x="1396" y="-233.4" font-family="Times Roman,serif" font-size="14.00">samples = 13</text>
<text text-anchor="middle" x="1396" y="-216.4" font-family="Times Roman,serif" font-size="14.00">value = [ 12. &#160;&#160;1. &#160;&#160;0.]</text>
</g>
<!-- 30&#45;&gt;31 -->
<g id="edge62" class="edge"><title>30&#45;&gt;31</title>
<path fill="none" stroke="black" d="M1401.27,-319.769C1400.68,-311.57 1400.06,-302.803 1399.45,-294.28"/>
<polygon fill="black" stroke="black" points="1402.92,-293.784 1398.72,-284.058 1395.94,-294.282 1402.92,-293.784"/>
</g>
<!-- 34 -->
<g id="node68" class="node"><title>34</title>
<polygon fill="none" stroke="black" points="1672,-275.5 1506,-275.5 1506,-216.5 1672,-216.5 1672,-275.5"/>
<text text-anchor="middle" x="1589" y="-258.9" font-family="Times Roman,serif" font-size="14.00">error = 0.0000</text>
<text text-anchor="middle" x="1589" y="-241.9" font-family="Times Roman,serif" font-size="14.00">samples = 58</text>
<text text-anchor="middle" x="1589" y="-224.9" font-family="Times Roman,serif" font-size="14.00">value = [ 58. &#160;&#160;0. &#160;&#160;0.]</text>
</g>
<!-- 30&#45;&gt;34 -->
<g id="edge68" class="edge"><title>30&#45;&gt;34</title>
<path fill="none" stroke="black" d="M1466.89,-319.926C1487.79,-307.274 1510.94,-293.258 1531.42,-280.862"/>
<polygon fill="black" stroke="black" points="1533.27,-283.83 1540.01,-275.657 1529.65,-277.842 1533.27,-283.83"/>
</g>
<!-- 32 -->
<g id="node64" class="node"><title>32</title>
<polygon fill="none" stroke="black" points="1391,-163.5 1225,-163.5 1225,-104.5 1391,-104.5 1391,-163.5"/>
<text text-anchor="middle" x="1308" y="-146.9" font-family="Times Roman,serif" font-size="14.00">error = 0.0000</text>
<text text-anchor="middle" x="1308" y="-129.9" font-family="Times Roman,serif" font-size="14.00">samples = 12</text>
<text text-anchor="middle" x="1308" y="-112.9" font-family="Times Roman,serif" font-size="14.00">value = [ 12. &#160;&#160;0. &#160;&#160;0.]</text>
</g>
<!-- 31&#45;&gt;32 -->
<g id="edge64" class="edge"><title>31&#45;&gt;32</title>
<path fill="none" stroke="black" d="M1365.96,-207.769C1356.74,-196.03 1346.6,-183.128 1337.42,-171.442"/>
<polygon fill="black" stroke="black" points="1340.17,-169.276 1331.24,-163.575 1334.66,-173.601 1340.17,-169.276"/>
</g>
<!-- 33 -->
<g id="node66" class="node"><title>33</title>
<polygon fill="none" stroke="black" points="1557,-163.5 1409,-163.5 1409,-104.5 1557,-104.5 1557,-163.5"/>
<text text-anchor="middle" x="1483" y="-146.9" font-family="Times Roman,serif" font-size="14.00">error = 0.0000</text>
<text text-anchor="middle" x="1483" y="-129.9" font-family="Times Roman,serif" font-size="14.00">samples = 1</text>
<text text-anchor="middle" x="1483" y="-112.9" font-family="Times Roman,serif" font-size="14.00">value = [ 0. &#160;1. &#160;0.]</text>
</g>
<!-- 31&#45;&gt;33 -->
<g id="edge66" class="edge"><title>31&#45;&gt;33</title>
<path fill="none" stroke="black" d="M1425.7,-207.769C1434.73,-196.143 1444.65,-183.376 1453.65,-171.78"/>
<polygon fill="black" stroke="black" points="1456.66,-173.62 1460.03,-163.575 1451.13,-169.326 1456.66,-173.62"/>
</g>
<!-- 36 -->
<g id="node72" class="node"><title>36</title>
<polygon fill="none" stroke="black" points="1754,-508 1560,-508 1560,-432 1754,-432 1754,-508"/>
<text text-anchor="middle" x="1657" y="-491.4" font-family="Times Roman,serif" font-size="14.00">X[0] &lt;= 0.9550</text>
<text text-anchor="middle" x="1657" y="-474.4" font-family="Times Roman,serif" font-size="14.00">error = 0.444444444444</text>
<text text-anchor="middle" x="1657" y="-457.4" font-family="Times Roman,serif" font-size="14.00">samples = 3</text>
<text text-anchor="middle" x="1657" y="-440.4" font-family="Times Roman,serif" font-size="14.00">value = [ 1. &#160;2. &#160;0.]</text>
</g>
<!-- 35&#45;&gt;36 -->
<g id="edge72" class="edge"><title>35&#45;&gt;36</title>
<path fill="none" stroke="black" d="M1657,-543.769C1657,-535.57 1657,-526.803 1657,-518.28"/>
<polygon fill="black" stroke="black" points="1660.5,-518.058 1657,-508.058 1653.5,-518.059 1660.5,-518.058"/>
</g>
<!-- 39 -->
<g id="node78" class="node"><title>39</title>
<polygon fill="none" stroke="black" points="2026,-508 1832,-508 1832,-432 2026,-432 2026,-508"/>
<text text-anchor="middle" x="1929" y="-491.4" font-family="Times Roman,serif" font-size="14.00">X[1] &lt;= 0.8837</text>
<text text-anchor="middle" x="1929" y="-474.4" font-family="Times Roman,serif" font-size="14.00">error = 0.277777777778</text>
<text text-anchor="middle" x="1929" y="-457.4" font-family="Times Roman,serif" font-size="14.00">samples = 6</text>
<text text-anchor="middle" x="1929" y="-440.4" font-family="Times Roman,serif" font-size="14.00">value = [ 5. &#160;1. &#160;0.]</text>
</g>
<!-- 35&#45;&gt;39 -->
<g id="edge78" class="edge"><title>35&#45;&gt;39</title>
<path fill="none" stroke="black" d="M1749.47,-543.926C1774.43,-533.646 1801.58,-522.466 1827.03,-511.986"/>
<polygon fill="black" stroke="black" points="1828.41,-515.203 1836.33,-508.159 1825.75,-508.73 1828.41,-515.203"/>
</g>
<!-- 37 -->
<g id="node74" class="node"><title>37</title>
<polygon fill="none" stroke="black" points="1671,-387.5 1523,-387.5 1523,-328.5 1671,-328.5 1671,-387.5"/>
<text text-anchor="middle" x="1597" y="-370.9" font-family="Times Roman,serif" font-size="14.00">error = 0.0000</text>
<text text-anchor="middle" x="1597" y="-353.9" font-family="Times Roman,serif" font-size="14.00">samples = 1</text>
<text text-anchor="middle" x="1597" y="-336.9" font-family="Times Roman,serif" font-size="14.00">value = [ 1. &#160;0. &#160;0.]</text>
</g>
<!-- 36&#45;&gt;37 -->
<g id="edge74" class="edge"><title>36&#45;&gt;37</title>
<path fill="none" stroke="black" d="M1636.52,-431.769C1630.41,-420.369 1623.72,-407.872 1617.6,-396.457"/>
<polygon fill="black" stroke="black" points="1620.65,-394.737 1612.84,-387.575 1614.48,-398.043 1620.65,-394.737"/>
</g>
<!-- 38 -->
<g id="node76" class="node"><title>38</title>
<polygon fill="none" stroke="black" points="1837,-387.5 1689,-387.5 1689,-328.5 1837,-328.5 1837,-387.5"/>
<text text-anchor="middle" x="1763" y="-370.9" font-family="Times Roman,serif" font-size="14.00">error = 0.0000</text>
<text text-anchor="middle" x="1763" y="-353.9" font-family="Times Roman,serif" font-size="14.00">samples = 2</text>
<text text-anchor="middle" x="1763" y="-336.9" font-family="Times Roman,serif" font-size="14.00">value = [ 0. &#160;2. &#160;0.]</text>
</g>
<!-- 36&#45;&gt;38 -->
<g id="edge76" class="edge"><title>36&#45;&gt;38</title>
<path fill="none" stroke="black" d="M1693.18,-431.769C1704.4,-419.917 1716.74,-406.88 1727.88,-395.106"/>
<polygon fill="black" stroke="black" points="1730.68,-397.244 1735.01,-387.575 1725.59,-392.433 1730.68,-397.244"/>
</g>
<!-- 40 -->
<g id="node80" class="node"><title>40</title>
<polygon fill="none" stroke="black" points="2003,-387.5 1855,-387.5 1855,-328.5 2003,-328.5 2003,-387.5"/>
<text text-anchor="middle" x="1929" y="-370.9" font-family="Times Roman,serif" font-size="14.00">error = 0.0000</text>
<text text-anchor="middle" x="1929" y="-353.9" font-family="Times Roman,serif" font-size="14.00">samples = 5</text>
<text text-anchor="middle" x="1929" y="-336.9" font-family="Times Roman,serif" font-size="14.00">value = [ 5. &#160;0. &#160;0.]</text>
</g>
<!-- 39&#45;&gt;40 -->
<g id="edge80" class="edge"><title>39&#45;&gt;40</title>
<path fill="none" stroke="black" d="M1929,-431.769C1929,-420.82 1929,-408.86 1929,-397.818"/>
<polygon fill="black" stroke="black" points="1932.5,-397.575 1929,-387.575 1925.5,-397.576 1932.5,-397.575"/>
</g>
<!-- 41 -->
<g id="node82" class="node"><title>41</title>
<polygon fill="none" stroke="black" points="2169,-387.5 2021,-387.5 2021,-328.5 2169,-328.5 2169,-387.5"/>
<text text-anchor="middle" x="2095" y="-370.9" font-family="Times Roman,serif" font-size="14.00">error = 0.0000</text>
<text text-anchor="middle" x="2095" y="-353.9" font-family="Times Roman,serif" font-size="14.00">samples = 1</text>
<text text-anchor="middle" x="2095" y="-336.9" font-family="Times Roman,serif" font-size="14.00">value = [ 0. &#160;1. &#160;0.]</text>
</g>
<!-- 39&#45;&gt;41 -->
<g id="edge82" class="edge"><title>39&#45;&gt;41</title>
<path fill="none" stroke="black" d="M1985.66,-431.769C2004.07,-419.353 2024.4,-405.636 2042.48,-393.432"/>
<polygon fill="black" stroke="black" points="2044.83,-396.07 2051.16,-387.575 2040.92,-390.267 2044.83,-396.07"/>
</g>
<!-- 43 -->
<g id="node86" class="node"><title>43</title>
<polygon fill="none" stroke="black" points="2431,-620 2229,-620 2229,-544 2431,-544 2431,-620"/>
<text text-anchor="middle" x="2330" y="-603.4" font-family="Times Roman,serif" font-size="14.00">X[2] &lt;= 0.3191</text>
<text text-anchor="middle" x="2330" y="-586.4" font-family="Times Roman,serif" font-size="14.00">error = 0.0783007080383</text>
<text text-anchor="middle" x="2330" y="-569.4" font-family="Times Roman,serif" font-size="14.00">samples = 98</text>
<text text-anchor="middle" x="2330" y="-552.4" font-family="Times Roman,serif" font-size="14.00">value = [ &#160;4. &#160;94. &#160;&#160;0.]</text>
</g>
<!-- 42&#45;&gt;43 -->
<g id="edge86" class="edge"><title>42&#45;&gt;43</title>
<path fill="none" stroke="black" d="M2330,-655.769C2330,-647.57 2330,-638.803 2330,-630.28"/>
<polygon fill="black" stroke="black" points="2333.5,-630.058 2330,-620.058 2326.5,-630.059 2333.5,-630.058"/>
</g>
<!-- 52 -->
<g id="node104" class="node"><title>52</title>
<polygon fill="none" stroke="black" points="2597,-611.5 2449,-611.5 2449,-552.5 2597,-552.5 2597,-611.5"/>
<text text-anchor="middle" x="2523" y="-594.9" font-family="Times Roman,serif" font-size="14.00">error = 0.0000</text>
<text text-anchor="middle" x="2523" y="-577.9" font-family="Times Roman,serif" font-size="14.00">samples = 1</text>
<text text-anchor="middle" x="2523" y="-560.9" font-family="Times Roman,serif" font-size="14.00">value = [ 1. &#160;0. &#160;0.]</text>
</g>
<!-- 42&#45;&gt;52 -->
<g id="edge104" class="edge"><title>42&#45;&gt;52</title>
<path fill="none" stroke="black" d="M2395.61,-655.926C2417.51,-643.218 2441.78,-629.133 2463.21,-616.696"/>
<polygon fill="black" stroke="black" points="2465,-619.703 2471.89,-611.657 2461.49,-613.649 2465,-619.703"/>
</g>
<!-- 44 -->
<g id="node88" class="node"><title>44</title>
<polygon fill="none" stroke="black" points="2427,-508 2233,-508 2233,-432 2427,-432 2427,-508"/>
<text text-anchor="middle" x="2330" y="-491.4" font-family="Times Roman,serif" font-size="14.00">X[1] &lt;= 0.6934</text>
<text text-anchor="middle" x="2330" y="-474.4" font-family="Times Roman,serif" font-size="14.00">error = 0.444444444444</text>
<text text-anchor="middle" x="2330" y="-457.4" font-family="Times Roman,serif" font-size="14.00">samples = 9</text>
<text text-anchor="middle" x="2330" y="-440.4" font-family="Times Roman,serif" font-size="14.00">value = [ 3. &#160;6. &#160;0.]</text>
</g>
<!-- 43&#45;&gt;44 -->
<g id="edge88" class="edge"><title>43&#45;&gt;44</title>
<path fill="none" stroke="black" d="M2330,-543.769C2330,-535.57 2330,-526.803 2330,-518.28"/>
<polygon fill="black" stroke="black" points="2333.5,-518.058 2330,-508.058 2326.5,-518.059 2333.5,-518.058"/>
</g>
<!-- 47 -->
<g id="node94" class="node"><title>47</title>
<polygon fill="none" stroke="black" points="2717,-508 2515,-508 2515,-432 2717,-432 2717,-508"/>
<text text-anchor="middle" x="2616" y="-491.4" font-family="Times Roman,serif" font-size="14.00">X[0] &lt;= 1.1750</text>
<text text-anchor="middle" x="2616" y="-474.4" font-family="Times Roman,serif" font-size="14.00">error = 0.0222194167403</text>
<text text-anchor="middle" x="2616" y="-457.4" font-family="Times Roman,serif" font-size="14.00">samples = 89</text>
<text text-anchor="middle" x="2616" y="-440.4" font-family="Times Roman,serif" font-size="14.00">value = [ &#160;1. &#160;88. &#160;&#160;0.]</text>
</g>
<!-- 43&#45;&gt;47 -->
<g id="edge94" class="edge"><title>43&#45;&gt;47</title>
<path fill="none" stroke="black" d="M2427.23,-543.926C2453.59,-533.601 2482.27,-522.368 2509.14,-511.848"/>
<polygon fill="black" stroke="black" points="2510.52,-515.065 2518.56,-508.159 2507.97,-508.547 2510.52,-515.065"/>
</g>
<!-- 45 -->
<g id="node90" class="node"><title>45</title>
<polygon fill="none" stroke="black" points="2335,-387.5 2187,-387.5 2187,-328.5 2335,-328.5 2335,-387.5"/>
<text text-anchor="middle" x="2261" y="-370.9" font-family="Times Roman,serif" font-size="14.00">error = 0.0000</text>
<text text-anchor="middle" x="2261" y="-353.9" font-family="Times Roman,serif" font-size="14.00">samples = 6</text>
<text text-anchor="middle" x="2261" y="-336.9" font-family="Times Roman,serif" font-size="14.00">value = [ 0. &#160;6. &#160;0.]</text>
</g>
<!-- 44&#45;&gt;45 -->
<g id="edge90" class="edge"><title>44&#45;&gt;45</title>
<path fill="none" stroke="black" d="M2306.45,-431.769C2299.35,-420.256 2291.57,-407.624 2284.48,-396.118"/>
<polygon fill="black" stroke="black" points="2287.45,-394.254 2279.22,-387.575 2281.49,-397.925 2287.45,-394.254"/>
</g>
<!-- 46 -->
<g id="node92" class="node"><title>46</title>
<polygon fill="none" stroke="black" points="2501,-387.5 2353,-387.5 2353,-328.5 2501,-328.5 2501,-387.5"/>
<text text-anchor="middle" x="2427" y="-370.9" font-family="Times Roman,serif" font-size="14.00">error = 0.0000</text>
<text text-anchor="middle" x="2427" y="-353.9" font-family="Times Roman,serif" font-size="14.00">samples = 3</text>
<text text-anchor="middle" x="2427" y="-336.9" font-family="Times Roman,serif" font-size="14.00">value = [ 3. &#160;0. &#160;0.]</text>
</g>
<!-- 44&#45;&gt;46 -->
<g id="edge92" class="edge"><title>44&#45;&gt;46</title>
<path fill="none" stroke="black" d="M2363.11,-431.769C2373.28,-420.03 2384.45,-407.128 2394.57,-395.442"/>
<polygon fill="black" stroke="black" points="2397.48,-397.426 2401.39,-387.575 2392.19,-392.843 2397.48,-397.426"/>
</g>
<!-- 48 -->
<g id="node96" class="node"><title>48</title>
<polygon fill="none" stroke="black" points="2713,-396 2519,-396 2519,-320 2713,-320 2713,-396"/>
<text text-anchor="middle" x="2616" y="-379.4" font-family="Times Roman,serif" font-size="14.00">X[0] &lt;= 1.1502</text>
<text text-anchor="middle" x="2616" y="-362.4" font-family="Times Roman,serif" font-size="14.00">error = 0.197530864198</text>
<text text-anchor="middle" x="2616" y="-345.4" font-family="Times Roman,serif" font-size="14.00">samples = 9</text>
<text text-anchor="middle" x="2616" y="-328.4" font-family="Times Roman,serif" font-size="14.00">value = [ 1. &#160;8. &#160;0.]</text>
</g>
<!-- 47&#45;&gt;48 -->
<g id="edge96" class="edge"><title>47&#45;&gt;48</title>
<path fill="none" stroke="black" d="M2616,-431.769C2616,-423.57 2616,-414.803 2616,-406.28"/>
<polygon fill="black" stroke="black" points="2619.5,-406.058 2616,-396.058 2612.5,-406.059 2619.5,-406.058"/>
</g>
<!-- 51 -->
<g id="node102" class="node"><title>51</title>
<polygon fill="none" stroke="black" points="2897,-387.5 2731,-387.5 2731,-328.5 2897,-328.5 2897,-387.5"/>
<text text-anchor="middle" x="2814" y="-370.9" font-family="Times Roman,serif" font-size="14.00">error = 0.0000</text>
<text text-anchor="middle" x="2814" y="-353.9" font-family="Times Roman,serif" font-size="14.00">samples = 80</text>
<text text-anchor="middle" x="2814" y="-336.9" font-family="Times Roman,serif" font-size="14.00">value = [ &#160;0. &#160;80. &#160;&#160;0.]</text>
</g>
<!-- 47&#45;&gt;51 -->
<g id="edge102" class="edge"><title>47&#45;&gt;51</title>
<path fill="none" stroke="black" d="M2683.31,-431.926C2705.78,-419.218 2730.68,-405.133 2752.66,-392.696"/>
<polygon fill="black" stroke="black" points="2754.59,-395.627 2761.57,-387.657 2751.14,-389.534 2754.59,-395.627"/>
</g>
<!-- 49 -->
<g id="node98" class="node"><title>49</title>
<polygon fill="none" stroke="black" points="2607,-275.5 2459,-275.5 2459,-216.5 2607,-216.5 2607,-275.5"/>
<text text-anchor="middle" x="2533" y="-258.9" font-family="Times Roman,serif" font-size="14.00">error = 0.0000</text>
<text text-anchor="middle" x="2533" y="-241.9" font-family="Times Roman,serif" font-size="14.00">samples = 8</text>
<text text-anchor="middle" x="2533" y="-224.9" font-family="Times Roman,serif" font-size="14.00">value = [ 0. &#160;8. &#160;0.]</text>
</g>
<!-- 48&#45;&gt;49 -->
<g id="edge98" class="edge"><title>48&#45;&gt;49</title>
<path fill="none" stroke="black" d="M2587.67,-319.769C2579.05,-308.143 2569.59,-295.376 2561,-283.78"/>
<polygon fill="black" stroke="black" points="2563.68,-281.526 2554.92,-275.575 2558.06,-285.694 2563.68,-281.526"/>
</g>
<!-- 50 -->
<g id="node100" class="node"><title>50</title>
<polygon fill="none" stroke="black" points="2773,-275.5 2625,-275.5 2625,-216.5 2773,-216.5 2773,-275.5"/>
<text text-anchor="middle" x="2699" y="-258.9" font-family="Times Roman,serif" font-size="14.00">error = 0.0000</text>
<text text-anchor="middle" x="2699" y="-241.9" font-family="Times Roman,serif" font-size="14.00">samples = 1</text>
<text text-anchor="middle" x="2699" y="-224.9" font-family="Times Roman,serif" font-size="14.00">value = [ 1. &#160;0. &#160;0.]</text>
</g>
<!-- 48&#45;&gt;50 -->
<g id="edge100" class="edge"><title>48&#45;&gt;50</title>
<path fill="none" stroke="black" d="M2644.33,-319.769C2652.95,-308.143 2662.41,-295.376 2671,-283.78"/>
<polygon fill="black" stroke="black" points="2673.94,-285.694 2677.08,-275.575 2668.32,-281.526 2673.94,-285.694"/>
</g>
</g>
</svg>
